# xmcd
#
# Track frame offsets: 
#        150
#        13239
#        29725
#        46315
#        62983
#        77003
#        95609
#        114313
#        127572
#        155547
#
# Disc length: 2323 seconds
#
# Revision: 0
# Processed by: cddbd v1.5.2PL0 Copyright (c) Steve Scherf et al.
# Submitted via: ExactAudioCopy v1.3
#
DISCID=7b09110a
DTITLE=Dirty Red and The Soul Shakers - Cloudless Day
DYEAR=2019
DGENRE=Electric Blues
TTITLE0=Hot Sauce
TTITLE1=Creepin
TTITLE2=Touch Of A Woman
TTITLE3=The Party Don't Start 'Til I Get Here
TTITLE4=New Day Dawning
TTITLE5=Sweet Potato Pie
TTITLE6=Cloudless Day
TTITLE7=Hard Bad Habit
TTITLE8=Pretty Boy Blues
TTITLE9=Help Me Baby
EXTD=
EXTT0=
EXTT1=
EXTT2=
EXTT3=
EXTT4=
EXTT5=
EXTT6=
EXTT7=
EXTT8=
EXTT9=
PLAYORDER=
